<?xml version="1.0" encoding="UTF-8"?>
<!DOCTYPE svg PUBLIC "-//W3C//DTD SVG 1.1//EN"
    "http://www.w3.org/Graphics/SVG/1.1/DTD/svg11.dtd"><svg xmlns="http://www.w3.org/2000/svg" height="2013.4554" stroke-opacity="1" viewBox="0 0 4096 2013" font-size="1" width="4096.0000" xmlns:xlink="http://www.w3.org/1999/xlink" stroke="rgb(0,0,0)" version="1.1"><defs></defs><g stroke-linejoin="miter" stroke-opacity="1.0" fill-opacity="1.0" stroke="rgb(0,0,0)" stroke-width="19.73975903614458" fill="rgb(0,0,255)" stroke-linecap="butt" stroke-miterlimit="10.0"><path d="M 3918.3422,1273.2145 c 0.0000,-21.8039 -17.6756,-39.4795 -39.4795 -39.4795c -21.8039,-0.0000 -39.4795,17.6756 -39.4795 39.4795c -0.0000,21.8039 17.6756,39.4795 39.4795 39.4795c 21.8039,0.0000 39.4795,-17.6756 39.4795 -39.4795Z"/></g><g stroke-linejoin="miter" stroke-opacity="1.0" fill-opacity="1.0" stroke="rgb(0,0,0)" stroke-width="19.73975903614458" fill="rgb(0,0,255)" stroke-linecap="butt" stroke-miterlimit="10.0"><path d="M 3681.4651,1273.2145 c 0.0000,-21.8039 -17.6756,-39.4795 -39.4795 -39.4795c -21.8039,-0.0000 -39.4795,17.6756 -39.4795 39.4795c -0.0000,21.8039 17.6756,39.4795 39.4795 39.4795c 21.8039,0.0000 39.4795,-17.6756 39.4795 -39.4795Z"/></g><g stroke-linejoin="miter" stroke-opacity="1.0" fill-opacity="1.0" stroke="rgb(0,0,0)" stroke-width="19.73975903614458" fill="rgb(0,0,0)" stroke-linecap="butt" stroke-miterlimit="10.0"><path d="M 3799.9036,1391.6530 c 0.0000,-21.8039 -17.6756,-39.4795 -39.4795 -39.4795c -21.8039,-0.0000 -39.4795,17.6756 -39.4795 39.4795c -0.0000,21.8039 17.6756,39.4795 39.4795 39.4795c 21.8039,0.0000 39.4795,-17.6756 39.4795 -39.4795Z"/></g><g stroke-linejoin="miter" stroke-opacity="1.0" fill-opacity="0.0" stroke="rgb(0,0,0)" stroke-width="19.73975903614458" fill="rgb(0,0,0)" stroke-linecap="butt" stroke-miterlimit="10.0"><path d="M 3732.5079,1363.7368 l -62.6061,-62.6061 "/></g><g stroke-linejoin="miter" stroke-opacity="1.0" fill-opacity="1.0" stroke="rgb(0,0,0)" stroke-width="0.0" fill="rgb(0,0,0)" stroke-linecap="butt" stroke-miterlimit="10.0"></g><g stroke-linejoin="miter" stroke-opacity="1.0" fill-opacity="1.0" stroke="rgb(0,0,0)" stroke-width="0.0" fill="rgb(0,0,0)" stroke-linecap="butt" stroke-miterlimit="10.0"></g><g stroke-linejoin="miter" stroke-opacity="1.0" fill-opacity="1.0" stroke="rgb(0,0,0)" stroke-width="0.0" fill="rgb(0,0,0)" stroke-linecap="butt" stroke-miterlimit="10.0"></g><g stroke-linejoin="miter" stroke-opacity="1.0" fill-opacity="1.0" stroke="rgb(0,0,0)" stroke-width="0.0" fill="rgb(0,0,0)" stroke-linecap="butt" stroke-miterlimit="10.0"></g><g stroke-linejoin="miter" stroke-opacity="1.0" fill-opacity="0.0" stroke="rgb(0,0,0)" stroke-width="19.73975903614458" fill="rgb(0,0,0)" stroke-linecap="butt" stroke-miterlimit="10.0"><path d="M 3788.3403,1363.7368 l 62.6061,-62.6061 "/></g><g stroke-linejoin="miter" stroke-opacity="1.0" fill-opacity="1.0" stroke="rgb(0,0,0)" stroke-width="0.0" fill="rgb(0,0,0)" stroke-linecap="butt" stroke-miterlimit="10.0"></g><g stroke-linejoin="miter" stroke-opacity="1.0" fill-opacity="1.0" stroke="rgb(0,0,0)" stroke-width="0.0" fill="rgb(0,0,0)" stroke-linecap="butt" stroke-miterlimit="10.0"></g><g stroke-linejoin="miter" stroke-opacity="1.0" fill-opacity="1.0" stroke="rgb(0,0,0)" stroke-width="0.0" fill="rgb(0,0,0)" stroke-linecap="butt" stroke-miterlimit="10.0"></g><g stroke-linejoin="miter" stroke-opacity="1.0" fill-opacity="1.0" stroke="rgb(0,0,0)" stroke-width="0.0" fill="rgb(0,0,0)" stroke-linecap="butt" stroke-miterlimit="10.0"></g><g stroke-linejoin="miter" stroke-opacity="1.0" fill-opacity="1.0" stroke="rgb(0,0,0)" stroke-width="19.73975903614458" fill="rgb(0,0,255)" stroke-linecap="butt" stroke-miterlimit="10.0"><path d="M 3444.5880,1273.2145 c 0.0000,-21.8039 -17.6756,-39.4795 -39.4795 -39.4795c -21.8039,-0.0000 -39.4795,17.6756 -39.4795 39.4795c -0.0000,21.8039 17.6756,39.4795 39.4795 39.4795c 21.8039,0.0000 39.4795,-17.6756 39.4795 -39.4795Z"/></g><g stroke-linejoin="miter" stroke-opacity="1.0" fill-opacity="1.0" stroke="rgb(0,0,0)" stroke-width="19.73975903614458" fill="rgb(0,0,0)" stroke-linecap="butt" stroke-miterlimit="10.0"><path d="M 3681.4651,1510.0916 c 0.0000,-21.8039 -17.6756,-39.4795 -39.4795 -39.4795c -21.8039,-0.0000 -39.4795,17.6756 -39.4795 39.4795c -0.0000,21.8039 17.6756,39.4795 39.4795 39.4795c 21.8039,0.0000 39.4795,-17.6756 39.4795 -39.4795Z"/></g><g stroke-linejoin="miter" stroke-opacity="1.0" fill-opacity="0.0" stroke="rgb(0,0,0)" stroke-width="19.73975903614458" fill="rgb(0,0,0)" stroke-linecap="butt" stroke-miterlimit="10.0"><path d="M 3614.0693,1482.1753 l -181.0446,-181.0446 "/></g><g stroke-linejoin="miter" stroke-opacity="1.0" fill-opacity="1.0" stroke="rgb(0,0,0)" stroke-width="0.0" fill="rgb(0,0,0)" stroke-linecap="butt" stroke-miterlimit="10.0"></g><g stroke-linejoin="miter" stroke-opacity="1.0" fill-opacity="1.0" stroke="rgb(0,0,0)" stroke-width="0.0" fill="rgb(0,0,0)" stroke-linecap="butt" stroke-miterlimit="10.0"></g><g stroke-linejoin="miter" stroke-opacity="1.0" fill-opacity="1.0" stroke="rgb(0,0,0)" stroke-width="0.0" fill="rgb(0,0,0)" stroke-linecap="butt" stroke-miterlimit="10.0"></g><g stroke-linejoin="miter" stroke-opacity="1.0" fill-opacity="1.0" stroke="rgb(0,0,0)" stroke-width="0.0" fill="rgb(0,0,0)" stroke-linecap="butt" stroke-miterlimit="10.0"></g><g stroke-linejoin="miter" stroke-opacity="1.0" fill-opacity="0.0" stroke="rgb(0,0,0)" stroke-width="19.73975903614458" fill="rgb(0,0,0)" stroke-linecap="butt" stroke-miterlimit="10.0"><path d="M 3669.9018,1482.1753 l 62.6061,-62.6061 "/></g><g stroke-linejoin="miter" stroke-opacity="1.0" fill-opacity="1.0" stroke="rgb(0,0,0)" stroke-width="0.0" fill="rgb(0,0,0)" stroke-linecap="butt" stroke-miterlimit="10.0"></g><g stroke-linejoin="miter" stroke-opacity="1.0" fill-opacity="1.0" stroke="rgb(0,0,0)" stroke-width="0.0" fill="rgb(0,0,0)" stroke-linecap="butt" stroke-miterlimit="10.0"></g><g stroke-linejoin="miter" stroke-opacity="1.0" fill-opacity="1.0" stroke="rgb(0,0,0)" stroke-width="0.0" fill="rgb(0,0,0)" stroke-linecap="butt" stroke-miterlimit="10.0"></g><g stroke-linejoin="miter" stroke-opacity="1.0" fill-opacity="1.0" stroke="rgb(0,0,0)" stroke-width="0.0" fill="rgb(0,0,0)" stroke-linecap="butt" stroke-miterlimit="10.0"></g><g stroke-linejoin="miter" stroke-opacity="1.0" fill-opacity="1.0" font-size="98.6987951807229px" stroke="rgb(0,0,0)" stroke-width="11.487115152015438" fill="rgb(0,0,0)" stroke-linecap="butt" stroke-miterlimit="10.0"><text dominant-baseline="middle" transform="matrix(1.0000,0.0000,0.0000,1.0000,2773.4361,1717.3590)" stroke="none" text-anchor="middle">\x -&gt; \y -&gt; y(\z -&gt; z(x))</text></g><g stroke-linejoin="miter" stroke-opacity="1.0" fill-opacity="1.0" stroke="rgb(0,0,0)" stroke-width="9.86987951807229" fill="rgb(0,0,0)" stroke-linecap="butt" stroke-miterlimit="10.0"><path d="M 3138.6217,1598.9205 c 0.0000,-10.9020 -8.8378,-19.7398 -19.7398 -19.7398c -10.9020,-0.0000 -19.7398,8.8378 -19.7398 19.7398c -0.0000,10.9020 8.8378,19.7398 19.7398 19.7398c 10.9020,0.0000 19.7398,-8.8378 19.7398 -19.7398Z"/></g><g stroke-linejoin="miter" stroke-opacity="1.0" fill-opacity="1.0" stroke="rgb(0,0,0)" stroke-width="9.86987951807229" fill="rgb(0,0,0)" stroke-linecap="butt" stroke-miterlimit="10.0"><path d="M 3000.4434,1598.9205 c 0.0000,-10.9020 -8.8378,-19.7398 -19.7398 -19.7398c -10.9020,-0.0000 -19.7398,8.8378 -19.7398 19.7398c -0.0000,10.9020 8.8378,19.7398 19.7398 19.7398c 10.9020,0.0000 19.7398,-8.8378 19.7398 -19.7398Z"/></g><g stroke-linejoin="miter" stroke-opacity="1.0" fill-opacity="1.0" stroke="rgb(0,0,0)" stroke-width="9.86987951807229" fill="rgb(0,0,0)" stroke-linecap="butt" stroke-miterlimit="10.0"><path d="M 2862.2651,1598.9205 c 0.0000,-10.9020 -8.8378,-19.7398 -19.7398 -19.7398c -10.9020,-0.0000 -19.7398,8.8378 -19.7398 19.7398c -0.0000,10.9020 8.8378,19.7398 19.7398 19.7398c 10.9020,0.0000 19.7398,-8.8378 19.7398 -19.7398Z"/></g><g stroke-linejoin="miter" stroke-opacity="1.0" fill-opacity="1.0" stroke="rgb(0,0,0)" stroke-width="9.86987951807229" fill="rgb(0,0,0)" stroke-linecap="butt" stroke-miterlimit="10.0"><path d="M 2724.0867,1598.9205 c 0.0000,-10.9020 -8.8378,-19.7398 -19.7398 -19.7398c -10.9020,-0.0000 -19.7398,8.8378 -19.7398 19.7398c -0.0000,10.9020 8.8378,19.7398 19.7398 19.7398c 10.9020,0.0000 19.7398,-8.8378 19.7398 -19.7398Z"/></g><g stroke-linejoin="miter" stroke-opacity="1.0" fill-opacity="1.0" stroke="rgb(0,0,0)" stroke-width="9.86987951807229" fill="rgb(0,0,0)" stroke-linecap="butt" stroke-miterlimit="10.0"><path d="M 2585.9084,1598.9205 c 0.0000,-10.9020 -8.8378,-19.7398 -19.7398 -19.7398c -10.9020,-0.0000 -19.7398,8.8378 -19.7398 19.7398c -0.0000,10.9020 8.8378,19.7398 19.7398 19.7398c 10.9020,0.0000 19.7398,-8.8378 19.7398 -19.7398Z"/></g><g stroke-linejoin="miter" stroke-opacity="1.0" fill-opacity="1.0" stroke="rgb(0,0,0)" stroke-width="9.86987951807229" fill="rgb(0,0,0)" stroke-linecap="butt" stroke-miterlimit="10.0"><path d="M 2447.7301,1598.9205 c 0.0000,-10.9020 -8.8378,-19.7398 -19.7398 -19.7398c -10.9020,-0.0000 -19.7398,8.8378 -19.7398 19.7398c -0.0000,10.9020 8.8378,19.7398 19.7398 19.7398c 10.9020,0.0000 19.7398,-8.8378 19.7398 -19.7398Z"/></g><g stroke-linejoin="miter" stroke-opacity="1.0" fill-opacity="0.0" stroke="rgb(0,0,0)" stroke-width="19.73975903614458" fill="rgb(0,0,0)" stroke-linecap="butt" stroke-miterlimit="10.0"><path d="M 2842.5253,1598.9205 c 0.0000,-38.1569 30.9323,-69.0892 69.0892 -69.0892c 38.1569,0.0000 69.0892,30.9323 69.0892 69.0892"/></g><g stroke-linejoin="miter" stroke-opacity="1.0" fill-opacity="1.0" stroke="rgb(0,0,0)" stroke-width="0.0" fill="rgb(0,0,0)" stroke-linecap="butt" stroke-miterlimit="10.0"></g><g stroke-linejoin="miter" stroke-opacity="1.0" fill-opacity="1.0" stroke="rgb(0,0,0)" stroke-width="0.0" fill="rgb(0,0,0)" stroke-linecap="butt" stroke-miterlimit="10.0"></g><g stroke-linejoin="miter" stroke-opacity="1.0" fill-opacity="1.0" stroke="rgb(0,0,0)" stroke-width="0.0" fill="rgb(0,0,0)" stroke-linecap="butt" stroke-miterlimit="10.0"></g><g stroke-linejoin="miter" stroke-opacity="1.0" fill-opacity="1.0" stroke="rgb(0,0,0)" stroke-width="0.0" fill="rgb(0,0,0)" stroke-linecap="butt" stroke-miterlimit="10.0"></g><g stroke-linejoin="miter" stroke-opacity="1.0" fill-opacity="0.0" stroke="rgb(0,0,0)" stroke-width="19.73975903614458" fill="rgb(0,0,0)" stroke-linecap="butt" stroke-miterlimit="10.0"><path d="M 2566.1687,1598.9205 c 0.0000,-38.1569 30.9323,-69.0892 69.0892 -69.0892c 38.1569,0.0000 69.0892,30.9323 69.0892 69.0892"/></g><g stroke-linejoin="miter" stroke-opacity="1.0" fill-opacity="1.0" stroke="rgb(0,0,0)" stroke-width="0.0" fill="rgb(0,0,0)" stroke-linecap="butt" stroke-miterlimit="10.0"></g><g stroke-linejoin="miter" stroke-opacity="1.0" fill-opacity="1.0" stroke="rgb(0,0,0)" stroke-width="0.0" fill="rgb(0,0,0)" stroke-linecap="butt" stroke-miterlimit="10.0"></g><g stroke-linejoin="miter" stroke-opacity="1.0" fill-opacity="1.0" stroke="rgb(0,0,0)" stroke-width="0.0" fill="rgb(0,0,0)" stroke-linecap="butt" stroke-miterlimit="10.0"></g><g stroke-linejoin="miter" stroke-opacity="1.0" fill-opacity="1.0" stroke="rgb(0,0,0)" stroke-width="0.0" fill="rgb(0,0,0)" stroke-linecap="butt" stroke-miterlimit="10.0"></g><g stroke-linejoin="miter" stroke-opacity="1.0" fill-opacity="0.0" stroke="rgb(0,0,0)" stroke-width="19.73975903614458" fill="rgb(0,0,0)" stroke-linecap="butt" stroke-miterlimit="10.0"><path d="M 2427.9904,1598.9205 c 0.0000,-190.7844 154.6613,-345.4458 345.4458 -345.4458c 190.7844,0.0000 345.4458,154.6613 345.4458 345.4458"/></g><g stroke-linejoin="miter" stroke-opacity="1.0" fill-opacity="1.0" stroke="rgb(0,0,0)" stroke-width="0.0" fill="rgb(0,0,0)" stroke-linecap="butt" stroke-miterlimit="10.0"></g><g stroke-linejoin="miter" stroke-opacity="1.0" fill-opacity="1.0" stroke="rgb(0,0,0)" stroke-width="0.0" fill="rgb(0,0,0)" stroke-linecap="butt" stroke-miterlimit="10.0"></g><g stroke-linejoin="miter" stroke-opacity="1.0" fill-opacity="1.0" stroke="rgb(0,0,0)" stroke-width="0.0" fill="rgb(0,0,0)" stroke-linecap="butt" stroke-miterlimit="10.0"></g><g stroke-linejoin="miter" stroke-opacity="1.0" fill-opacity="1.0" stroke="rgb(0,0,0)" stroke-width="0.0" fill="rgb(0,0,0)" stroke-linecap="butt" stroke-miterlimit="10.0"></g><g stroke-linejoin="miter" stroke-opacity="1.0" fill-opacity="0.0" stroke="rgb(0,0,0)" stroke-width="49.34939759036145" fill="rgb(0,0,0)" stroke-linecap="butt" stroke-miterlimit="10.0"><path d="M 1914.7566,1618.6602 v 98.6988 h 98.6988 "/></g><g stroke-linejoin="miter" stroke-opacity="1.0" fill-opacity="1.0" font-size="98.6987951807229px" stroke="rgb(0,0,0)" stroke-width="11.487115152015438" fill="rgb(0,0,0)" stroke-linecap="butt" stroke-miterlimit="10.0"><text dominant-baseline="middle" transform="matrix(1.0000,0.0000,0.0000,1.0000,1154.7759,1717.3590)" stroke="none" text-anchor="middle">\x -&gt; \y -&gt; \z -&gt; z(y(x))</text></g><g stroke-linejoin="miter" stroke-opacity="1.0" fill-opacity="1.0" stroke="rgb(0,0,0)" stroke-width="9.86987951807229" fill="rgb(0,0,0)" stroke-linecap="butt" stroke-miterlimit="10.0"><path d="M 1519.9614,1598.9205 c 0.0000,-10.9020 -8.8378,-19.7398 -19.7398 -19.7398c -10.9020,-0.0000 -19.7398,8.8378 -19.7398 19.7398c -0.0000,10.9020 8.8378,19.7398 19.7398 19.7398c 10.9020,0.0000 19.7398,-8.8378 19.7398 -19.7398Z"/></g><g stroke-linejoin="miter" stroke-opacity="1.0" fill-opacity="1.0" stroke="rgb(0,0,0)" stroke-width="9.86987951807229" fill="rgb(0,0,0)" stroke-linecap="butt" stroke-miterlimit="10.0"><path d="M 1381.7831,1598.9205 c 0.0000,-10.9020 -8.8378,-19.7398 -19.7398 -19.7398c -10.9020,-0.0000 -19.7398,8.8378 -19.7398 19.7398c -0.0000,10.9020 8.8378,19.7398 19.7398 19.7398c 10.9020,0.0000 19.7398,-8.8378 19.7398 -19.7398Z"/></g><g stroke-linejoin="miter" stroke-opacity="1.0" fill-opacity="1.0" stroke="rgb(0,0,0)" stroke-width="9.86987951807229" fill="rgb(0,0,0)" stroke-linecap="butt" stroke-miterlimit="10.0"><path d="M 1243.6048,1598.9205 c 0.0000,-10.9020 -8.8378,-19.7398 -19.7398 -19.7398c -10.9020,-0.0000 -19.7398,8.8378 -19.7398 19.7398c -0.0000,10.9020 8.8378,19.7398 19.7398 19.7398c 10.9020,0.0000 19.7398,-8.8378 19.7398 -19.7398Z"/></g><g stroke-linejoin="miter" stroke-opacity="1.0" fill-opacity="1.0" stroke="rgb(0,0,0)" stroke-width="9.86987951807229" fill="rgb(0,0,0)" stroke-linecap="butt" stroke-miterlimit="10.0"><path d="M 1105.4265,1598.9205 c 0.0000,-10.9020 -8.8378,-19.7398 -19.7398 -19.7398c -10.9020,-0.0000 -19.7398,8.8378 -19.7398 19.7398c -0.0000,10.9020 8.8378,19.7398 19.7398 19.7398c 10.9020,0.0000 19.7398,-8.8378 19.7398 -19.7398Z"/></g><g stroke-linejoin="miter" stroke-opacity="1.0" fill-opacity="1.0" stroke="rgb(0,0,0)" stroke-width="9.86987951807229" fill="rgb(0,0,0)" stroke-linecap="butt" stroke-miterlimit="10.0"><path d="M 967.2482,1598.9205 c 0.0000,-10.9020 -8.8378,-19.7398 -19.7398 -19.7398c -10.9020,-0.0000 -19.7398,8.8378 -19.7398 19.7398c -0.0000,10.9020 8.8378,19.7398 19.7398 19.7398c 10.9020,0.0000 19.7398,-8.8378 19.7398 -19.7398Z"/></g><g stroke-linejoin="miter" stroke-opacity="1.0" fill-opacity="1.0" stroke="rgb(0,0,0)" stroke-width="9.86987951807229" fill="rgb(0,0,0)" stroke-linecap="butt" stroke-miterlimit="10.0"><path d="M 829.0699,1598.9205 c 0.0000,-10.9020 -8.8378,-19.7398 -19.7398 -19.7398c -10.9020,-0.0000 -19.7398,8.8378 -19.7398 19.7398c -0.0000,10.9020 8.8378,19.7398 19.7398 19.7398c 10.9020,0.0000 19.7398,-8.8378 19.7398 -19.7398Z"/></g><g stroke-linejoin="miter" stroke-opacity="1.0" fill-opacity="0.0" stroke="rgb(0,0,0)" stroke-width="19.73975903614458" fill="rgb(0,0,0)" stroke-linecap="butt" stroke-miterlimit="10.0"><path d="M 1085.6867,1598.9205 c 0.0000,-38.1569 30.9323,-69.0892 69.0892 -69.0892c 38.1569,0.0000 69.0892,30.9323 69.0892 69.0892"/></g><g stroke-linejoin="miter" stroke-opacity="1.0" fill-opacity="1.0" stroke="rgb(0,0,0)" stroke-width="0.0" fill="rgb(0,0,0)" stroke-linecap="butt" stroke-miterlimit="10.0"></g><g stroke-linejoin="miter" stroke-opacity="1.0" fill-opacity="1.0" stroke="rgb(0,0,0)" stroke-width="0.0" fill="rgb(0,0,0)" stroke-linecap="butt" stroke-miterlimit="10.0"></g><g stroke-linejoin="miter" stroke-opacity="1.0" fill-opacity="1.0" stroke="rgb(0,0,0)" stroke-width="0.0" fill="rgb(0,0,0)" stroke-linecap="butt" stroke-miterlimit="10.0"></g><g stroke-linejoin="miter" stroke-opacity="1.0" fill-opacity="1.0" stroke="rgb(0,0,0)" stroke-width="0.0" fill="rgb(0,0,0)" stroke-linecap="butt" stroke-miterlimit="10.0"></g><g stroke-linejoin="miter" stroke-opacity="1.0" fill-opacity="0.0" stroke="rgb(0,0,0)" stroke-width="19.73975903614458" fill="rgb(0,0,0)" stroke-linecap="butt" stroke-miterlimit="10.0"><path d="M 947.5084,1598.9205 c 0.0000,-114.4707 92.7968,-207.2675 207.2675 -207.2675c 114.4707,0.0000 207.2675,92.7968 207.2675 207.2675"/></g><g stroke-linejoin="miter" stroke-opacity="1.0" fill-opacity="1.0" stroke="rgb(0,0,0)" stroke-width="0.0" fill="rgb(0,0,0)" stroke-linecap="butt" stroke-miterlimit="10.0"></g><g stroke-linejoin="miter" stroke-opacity="1.0" fill-opacity="1.0" stroke="rgb(0,0,0)" stroke-width="0.0" fill="rgb(0,0,0)" stroke-linecap="butt" stroke-miterlimit="10.0"></g><g stroke-linejoin="miter" stroke-opacity="1.0" fill-opacity="1.0" stroke="rgb(0,0,0)" stroke-width="0.0" fill="rgb(0,0,0)" stroke-linecap="butt" stroke-miterlimit="10.0"></g><g stroke-linejoin="miter" stroke-opacity="1.0" fill-opacity="1.0" stroke="rgb(0,0,0)" stroke-width="0.0" fill="rgb(0,0,0)" stroke-linecap="butt" stroke-miterlimit="10.0"></g><g stroke-linejoin="miter" stroke-opacity="1.0" fill-opacity="0.0" stroke="rgb(0,0,0)" stroke-width="19.73975903614458" fill="rgb(0,0,0)" stroke-linecap="butt" stroke-miterlimit="10.0"><path d="M 809.3301,1598.9205 c 0.0000,-190.7844 154.6613,-345.4458 345.4458 -345.4458c 190.7844,0.0000 345.4458,154.6613 345.4458 345.4458"/></g><g stroke-linejoin="miter" stroke-opacity="1.0" fill-opacity="1.0" stroke="rgb(0,0,0)" stroke-width="0.0" fill="rgb(0,0,0)" stroke-linecap="butt" stroke-miterlimit="10.0"></g><g stroke-linejoin="miter" stroke-opacity="1.0" fill-opacity="1.0" stroke="rgb(0,0,0)" stroke-width="0.0" fill="rgb(0,0,0)" stroke-linecap="butt" stroke-miterlimit="10.0"></g><g stroke-linejoin="miter" stroke-opacity="1.0" fill-opacity="1.0" stroke="rgb(0,0,0)" stroke-width="0.0" fill="rgb(0,0,0)" stroke-linecap="butt" stroke-miterlimit="10.0"></g><g stroke-linejoin="miter" stroke-opacity="1.0" fill-opacity="1.0" stroke="rgb(0,0,0)" stroke-width="0.0" fill="rgb(0,0,0)" stroke-linecap="butt" stroke-miterlimit="10.0"></g><g stroke-linejoin="miter" stroke-opacity="1.0" fill-opacity="0.0" stroke="rgb(0,0,0)" stroke-width="49.34939759036145" fill="rgb(0,0,0)" stroke-linecap="butt" stroke-miterlimit="10.0"><path d="M 296.0964,1618.6602 v 98.6988 h 98.6988 "/></g><g stroke-linejoin="miter" stroke-opacity="1.0" fill-opacity="0.0" stroke="rgb(0,0,0)" stroke-width="49.34939759036145" fill="rgb(0,0,0)" stroke-linecap="butt" stroke-miterlimit="10.0"><path d="M 296.0964,1253.4747 v -98.6988 h 98.6988 "/></g><g stroke-linejoin="miter" stroke-opacity="1.0" fill-opacity="1.0" stroke="rgb(0,0,0)" stroke-width="19.73975903614458" fill="rgb(0,0,255)" stroke-linecap="butt" stroke-miterlimit="10.0"><path d="M 2299.6819,315.8361 c 0.0000,-21.8039 -17.6756,-39.4795 -39.4795 -39.4795c -21.8039,-0.0000 -39.4795,17.6756 -39.4795 39.4795c -0.0000,21.8039 17.6756,39.4795 39.4795 39.4795c 21.8039,0.0000 39.4795,-17.6756 39.4795 -39.4795Z"/></g><g stroke-linejoin="miter" stroke-opacity="1.0" fill-opacity="1.0" stroke="rgb(0,0,0)" stroke-width="19.73975903614458" fill="rgb(0,0,255)" stroke-linecap="butt" stroke-miterlimit="10.0"><path d="M 2062.8048,315.8361 c 0.0000,-21.8039 -17.6756,-39.4795 -39.4795 -39.4795c -21.8039,-0.0000 -39.4795,17.6756 -39.4795 39.4795c -0.0000,21.8039 17.6756,39.4795 39.4795 39.4795c 21.8039,0.0000 39.4795,-17.6756 39.4795 -39.4795Z"/></g><g stroke-linejoin="miter" stroke-opacity="1.0" fill-opacity="1.0" stroke="rgb(0,0,0)" stroke-width="19.73975903614458" fill="rgb(0,0,255)" stroke-linecap="butt" stroke-miterlimit="10.0"><path d="M 1825.9277,315.8361 c 0.0000,-21.8039 -17.6756,-39.4795 -39.4795 -39.4795c -21.8039,-0.0000 -39.4795,17.6756 -39.4795 39.4795c -0.0000,21.8039 17.6756,39.4795 39.4795 39.4795c 21.8039,0.0000 39.4795,-17.6756 39.4795 -39.4795Z"/></g><g stroke-linejoin="miter" stroke-opacity="1.0" fill-opacity="1.0" stroke="rgb(0,0,0)" stroke-width="19.73975903614458" fill="rgb(0,0,0)" stroke-linecap="butt" stroke-miterlimit="10.0"><path d="M 1944.3663,434.2747 c 0.0000,-21.8039 -17.6756,-39.4795 -39.4795 -39.4795c -21.8039,-0.0000 -39.4795,17.6756 -39.4795 39.4795c -0.0000,21.8039 17.6756,39.4795 39.4795 39.4795c 21.8039,0.0000 39.4795,-17.6756 39.4795 -39.4795Z"/></g><g stroke-linejoin="miter" stroke-opacity="1.0" fill-opacity="0.0" stroke="rgb(0,0,0)" stroke-width="19.73975903614458" fill="rgb(0,0,0)" stroke-linecap="butt" stroke-miterlimit="10.0"><path d="M 1876.9705,406.3585 l -62.6061,-62.6061 "/></g><g stroke-linejoin="miter" stroke-opacity="1.0" fill-opacity="1.0" stroke="rgb(0,0,0)" stroke-width="0.0" fill="rgb(0,0,0)" stroke-linecap="butt" stroke-miterlimit="10.0"></g><g stroke-linejoin="miter" stroke-opacity="1.0" fill-opacity="1.0" stroke="rgb(0,0,0)" stroke-width="0.0" fill="rgb(0,0,0)" stroke-linecap="butt" stroke-miterlimit="10.0"></g><g stroke-linejoin="miter" stroke-opacity="1.0" fill-opacity="1.0" stroke="rgb(0,0,0)" stroke-width="0.0" fill="rgb(0,0,0)" stroke-linecap="butt" stroke-miterlimit="10.0"></g><g stroke-linejoin="miter" stroke-opacity="1.0" fill-opacity="1.0" stroke="rgb(0,0,0)" stroke-width="0.0" fill="rgb(0,0,0)" stroke-linecap="butt" stroke-miterlimit="10.0"></g><g stroke-linejoin="miter" stroke-opacity="1.0" fill-opacity="0.0" stroke="rgb(0,0,0)" stroke-width="19.73975903614458" fill="rgb(0,0,0)" stroke-linecap="butt" stroke-miterlimit="10.0"><path d="M 1932.8030,406.3585 l 62.6061,-62.6061 "/></g><g stroke-linejoin="miter" stroke-opacity="1.0" fill-opacity="1.0" stroke="rgb(0,0,0)" stroke-width="0.0" fill="rgb(0,0,0)" stroke-linecap="butt" stroke-miterlimit="10.0"></g><g stroke-linejoin="miter" stroke-opacity="1.0" fill-opacity="1.0" stroke="rgb(0,0,0)" stroke-width="0.0" fill="rgb(0,0,0)" stroke-linecap="butt" stroke-miterlimit="10.0"></g><g stroke-linejoin="miter" stroke-opacity="1.0" fill-opacity="1.0" stroke="rgb(0,0,0)" stroke-width="0.0" fill="rgb(0,0,0)" stroke-linecap="butt" stroke-miterlimit="10.0"></g><g stroke-linejoin="miter" stroke-opacity="1.0" fill-opacity="1.0" stroke="rgb(0,0,0)" stroke-width="0.0" fill="rgb(0,0,0)" stroke-linecap="butt" stroke-miterlimit="10.0"></g><g stroke-linejoin="miter" stroke-opacity="1.0" fill-opacity="1.0" stroke="rgb(0,0,0)" stroke-width="19.73975903614458" fill="rgb(0,0,0)" stroke-linecap="butt" stroke-miterlimit="10.0"><path d="M 2062.8048,552.7133 c 0.0000,-21.8039 -17.6756,-39.4795 -39.4795 -39.4795c -21.8039,-0.0000 -39.4795,17.6756 -39.4795 39.4795c -0.0000,21.8039 17.6756,39.4795 39.4795 39.4795c 21.8039,0.0000 39.4795,-17.6756 39.4795 -39.4795Z"/></g><g stroke-linejoin="miter" stroke-opacity="1.0" fill-opacity="0.0" stroke="rgb(0,0,0)" stroke-width="19.73975903614458" fill="rgb(0,0,0)" stroke-linecap="butt" stroke-miterlimit="10.0"><path d="M 1995.4091,524.7970 l -62.6061,-62.6061 "/></g><g stroke-linejoin="miter" stroke-opacity="1.0" fill-opacity="1.0" stroke="rgb(0,0,0)" stroke-width="0.0" fill="rgb(0,0,0)" stroke-linecap="butt" stroke-miterlimit="10.0"></g><g stroke-linejoin="miter" stroke-opacity="1.0" fill-opacity="1.0" stroke="rgb(0,0,0)" stroke-width="0.0" fill="rgb(0,0,0)" stroke-linecap="butt" stroke-miterlimit="10.0"></g><g stroke-linejoin="miter" stroke-opacity="1.0" fill-opacity="1.0" stroke="rgb(0,0,0)" stroke-width="0.0" fill="rgb(0,0,0)" stroke-linecap="butt" stroke-miterlimit="10.0"></g><g stroke-linejoin="miter" stroke-opacity="1.0" fill-opacity="1.0" stroke="rgb(0,0,0)" stroke-width="0.0" fill="rgb(0,0,0)" stroke-linecap="butt" stroke-miterlimit="10.0"></g><g stroke-linejoin="miter" stroke-opacity="1.0" fill-opacity="0.0" stroke="rgb(0,0,0)" stroke-width="19.73975903614458" fill="rgb(0,0,0)" stroke-linecap="butt" stroke-miterlimit="10.0"><path d="M 2051.2415,524.7970 l 181.0446,-181.0446 "/></g><g stroke-linejoin="miter" stroke-opacity="1.0" fill-opacity="1.0" stroke="rgb(0,0,0)" stroke-width="0.0" fill="rgb(0,0,0)" stroke-linecap="butt" stroke-miterlimit="10.0"></g><g stroke-linejoin="miter" stroke-opacity="1.0" fill-opacity="1.0" stroke="rgb(0,0,0)" stroke-width="0.0" fill="rgb(0,0,0)" stroke-linecap="butt" stroke-miterlimit="10.0"></g><g stroke-linejoin="miter" stroke-opacity="1.0" fill-opacity="1.0" stroke="rgb(0,0,0)" stroke-width="0.0" fill="rgb(0,0,0)" stroke-linecap="butt" stroke-miterlimit="10.0"></g><g stroke-linejoin="miter" stroke-opacity="1.0" fill-opacity="1.0" stroke="rgb(0,0,0)" stroke-width="0.0" fill="rgb(0,0,0)" stroke-linecap="butt" stroke-miterlimit="10.0"></g><g stroke-linejoin="miter" stroke-opacity="1.0" fill-opacity="1.0" font-size="98.6987951807229px" stroke="rgb(0,0,0)" stroke-width="11.487115152015438" fill="rgb(0,0,0)" stroke-linecap="butt" stroke-miterlimit="10.0"><text dominant-baseline="middle" transform="matrix(1.0000,0.0000,0.0000,1.0000,1154.7759,759.9807)" stroke="none" text-anchor="middle">\x -&gt; \y -&gt; \z -&gt; z(y)(x)</text></g><g stroke-linejoin="miter" stroke-opacity="1.0" fill-opacity="1.0" stroke="rgb(0,0,0)" stroke-width="9.86987951807229" fill="rgb(0,0,0)" stroke-linecap="butt" stroke-miterlimit="10.0"><path d="M 1519.9614,641.5422 c 0.0000,-10.9020 -8.8378,-19.7398 -19.7398 -19.7398c -10.9020,-0.0000 -19.7398,8.8378 -19.7398 19.7398c -0.0000,10.9020 8.8378,19.7398 19.7398 19.7398c 10.9020,0.0000 19.7398,-8.8378 19.7398 -19.7398Z"/></g><g stroke-linejoin="miter" stroke-opacity="1.0" fill-opacity="1.0" stroke="rgb(0,0,0)" stroke-width="9.86987951807229" fill="rgb(0,0,0)" stroke-linecap="butt" stroke-miterlimit="10.0"><path d="M 1381.7831,641.5422 c 0.0000,-10.9020 -8.8378,-19.7398 -19.7398 -19.7398c -10.9020,-0.0000 -19.7398,8.8378 -19.7398 19.7398c -0.0000,10.9020 8.8378,19.7398 19.7398 19.7398c 10.9020,0.0000 19.7398,-8.8378 19.7398 -19.7398Z"/></g><g stroke-linejoin="miter" stroke-opacity="1.0" fill-opacity="1.0" stroke="rgb(0,0,0)" stroke-width="9.86987951807229" fill="rgb(0,0,0)" stroke-linecap="butt" stroke-miterlimit="10.0"><path d="M 1243.6048,641.5422 c 0.0000,-10.9020 -8.8378,-19.7398 -19.7398 -19.7398c -10.9020,-0.0000 -19.7398,8.8378 -19.7398 19.7398c -0.0000,10.9020 8.8378,19.7398 19.7398 19.7398c 10.9020,0.0000 19.7398,-8.8378 19.7398 -19.7398Z"/></g><g stroke-linejoin="miter" stroke-opacity="1.0" fill-opacity="1.0" stroke="rgb(0,0,0)" stroke-width="9.86987951807229" fill="rgb(0,0,0)" stroke-linecap="butt" stroke-miterlimit="10.0"><path d="M 1105.4265,641.5422 c 0.0000,-10.9020 -8.8378,-19.7398 -19.7398 -19.7398c -10.9020,-0.0000 -19.7398,8.8378 -19.7398 19.7398c -0.0000,10.9020 8.8378,19.7398 19.7398 19.7398c 10.9020,0.0000 19.7398,-8.8378 19.7398 -19.7398Z"/></g><g stroke-linejoin="miter" stroke-opacity="1.0" fill-opacity="1.0" stroke="rgb(0,0,0)" stroke-width="9.86987951807229" fill="rgb(0,0,0)" stroke-linecap="butt" stroke-miterlimit="10.0"><path d="M 967.2482,641.5422 c 0.0000,-10.9020 -8.8378,-19.7398 -19.7398 -19.7398c -10.9020,-0.0000 -19.7398,8.8378 -19.7398 19.7398c -0.0000,10.9020 8.8378,19.7398 19.7398 19.7398c 10.9020,0.0000 19.7398,-8.8378 19.7398 -19.7398Z"/></g><g stroke-linejoin="miter" stroke-opacity="1.0" fill-opacity="1.0" stroke="rgb(0,0,0)" stroke-width="9.86987951807229" fill="rgb(0,0,0)" stroke-linecap="butt" stroke-miterlimit="10.0"><path d="M 829.0699,641.5422 c 0.0000,-10.9020 -8.8378,-19.7398 -19.7398 -19.7398c -10.9020,-0.0000 -19.7398,8.8378 -19.7398 19.7398c -0.0000,10.9020 8.8378,19.7398 19.7398 19.7398c 10.9020,0.0000 19.7398,-8.8378 19.7398 -19.7398Z"/></g><g stroke-linejoin="miter" stroke-opacity="1.0" fill-opacity="0.0" stroke="rgb(0,0,0)" stroke-width="19.73975903614458" fill="rgb(0,0,0)" stroke-linecap="butt" stroke-miterlimit="10.0"><path d="M 1085.6867,641.5422 c 0.0000,-38.1569 30.9323,-69.0892 69.0892 -69.0892c 38.1569,0.0000 69.0892,30.9323 69.0892 69.0892"/></g><g stroke-linejoin="miter" stroke-opacity="1.0" fill-opacity="1.0" stroke="rgb(0,0,0)" stroke-width="0.0" fill="rgb(0,0,0)" stroke-linecap="butt" stroke-miterlimit="10.0"></g><g stroke-linejoin="miter" stroke-opacity="1.0" fill-opacity="1.0" stroke="rgb(0,0,0)" stroke-width="0.0" fill="rgb(0,0,0)" stroke-linecap="butt" stroke-miterlimit="10.0"></g><g stroke-linejoin="miter" stroke-opacity="1.0" fill-opacity="1.0" stroke="rgb(0,0,0)" stroke-width="0.0" fill="rgb(0,0,0)" stroke-linecap="butt" stroke-miterlimit="10.0"></g><g stroke-linejoin="miter" stroke-opacity="1.0" fill-opacity="1.0" stroke="rgb(0,0,0)" stroke-width="0.0" fill="rgb(0,0,0)" stroke-linecap="butt" stroke-miterlimit="10.0"></g><g stroke-linejoin="miter" stroke-opacity="1.0" fill-opacity="0.0" stroke="rgb(0,0,0)" stroke-width="19.73975903614458" fill="rgb(0,0,0)" stroke-linecap="butt" stroke-miterlimit="10.0"><path d="M 947.5084,641.5422 c 0.0000,-114.4707 92.7968,-207.2675 207.2675 -207.2675c 114.4707,0.0000 207.2675,92.7968 207.2675 207.2675"/></g><g stroke-linejoin="miter" stroke-opacity="1.0" fill-opacity="1.0" stroke="rgb(0,0,0)" stroke-width="0.0" fill="rgb(0,0,0)" stroke-linecap="butt" stroke-miterlimit="10.0"></g><g stroke-linejoin="miter" stroke-opacity="1.0" fill-opacity="1.0" stroke="rgb(0,0,0)" stroke-width="0.0" fill="rgb(0,0,0)" stroke-linecap="butt" stroke-miterlimit="10.0"></g><g stroke-linejoin="miter" stroke-opacity="1.0" fill-opacity="1.0" stroke="rgb(0,0,0)" stroke-width="0.0" fill="rgb(0,0,0)" stroke-linecap="butt" stroke-miterlimit="10.0"></g><g stroke-linejoin="miter" stroke-opacity="1.0" fill-opacity="1.0" stroke="rgb(0,0,0)" stroke-width="0.0" fill="rgb(0,0,0)" stroke-linecap="butt" stroke-miterlimit="10.0"></g><g stroke-linejoin="miter" stroke-opacity="1.0" fill-opacity="0.0" stroke="rgb(0,0,0)" stroke-width="19.73975903614458" fill="rgb(0,0,0)" stroke-linecap="butt" stroke-miterlimit="10.0"><path d="M 809.3301,641.5422 c 0.0000,-190.7844 154.6613,-345.4458 345.4458 -345.4458c 190.7844,0.0000 345.4458,154.6613 345.4458 345.4458"/></g><g stroke-linejoin="miter" stroke-opacity="1.0" fill-opacity="1.0" stroke="rgb(0,0,0)" stroke-width="0.0" fill="rgb(0,0,0)" stroke-linecap="butt" stroke-miterlimit="10.0"></g><g stroke-linejoin="miter" stroke-opacity="1.0" fill-opacity="1.0" stroke="rgb(0,0,0)" stroke-width="0.0" fill="rgb(0,0,0)" stroke-linecap="butt" stroke-miterlimit="10.0"></g><g stroke-linejoin="miter" stroke-opacity="1.0" fill-opacity="1.0" stroke="rgb(0,0,0)" stroke-width="0.0" fill="rgb(0,0,0)" stroke-linecap="butt" stroke-miterlimit="10.0"></g><g stroke-linejoin="miter" stroke-opacity="1.0" fill-opacity="1.0" stroke="rgb(0,0,0)" stroke-width="0.0" fill="rgb(0,0,0)" stroke-linecap="butt" stroke-miterlimit="10.0"></g><g stroke-linejoin="miter" stroke-opacity="1.0" fill-opacity="0.0" stroke="rgb(0,0,0)" stroke-width="49.34939759036145" fill="rgb(0,0,0)" stroke-linecap="butt" stroke-miterlimit="10.0"><path d="M 296.0964,661.2819 v 98.6988 h 98.6988 "/></g><g stroke-linejoin="miter" stroke-opacity="1.0" fill-opacity="0.0" stroke="rgb(0,0,0)" stroke-width="49.34939759036145" fill="rgb(0,0,0)" stroke-linecap="butt" stroke-miterlimit="10.0"><path d="M 296.0964,296.0964 v -98.6988 h 98.6988 "/></g></svg>